<svg xmlns="http://www.w3.org/2000/svg" viewBox="0 0 64 64">
  <rect width="64" height="64" rx="14" fill="#10251c"/>
  <path
    d="M33.5 49c0-10.7 2.9-18.9 8.6-24.6 3.3-3.3 7.2-5.4 11.6-6.4.2 4.9-1.1 9.2-4 12.8-3.8 4.8-9.2 7.1-16.2 6.9V49Z"
    fill="#72d49d"
  />
  <path
    d="M30.5 49c0-9.4-2.4-16.5-7.2-21.3-3.3-3.3-7.5-5.3-12.5-6 .1 4.8 1.6 8.9 4.7 12.3 3.6 4 8.6 5.9 15 5.7V49Z"
    fill="#d9a441"
  />
  <path d="M32 50V23" stroke="#f4f7f5" stroke-width="5" stroke-linecap="round"/>
  <path d="M23 16h18" stroke="#f4f7f5" stroke-width="5" stroke-linecap="round"/>
</svg>
